<svg version="1.2" xmlns="http://www.w3.org/2000/svg" viewBox="0 0 865 180" width="865" height="180">
	<title>hp-frame-3-svg</title>
	<style>
		.s0 { fill: none;stroke: #665e59;stroke-width: 2 } 
	</style>
	<g id="OBJECTS">
		<g id="&lt;Group&gt;">
			<g id="&lt;Group&gt;">
				<g id="&lt;Group&gt;">
					<path id="&lt;Path&gt;" class="s0" d="m66.6 81.4c16.3-14.4 46.7-10.9 46.7-10.9 0 0 3.9 26.7-12.5 41.1-16.4 14.4-46.8 10.9-46.8 10.9 0 0-3.8-26.8 12.6-41.1z"/>
					<path id="&lt;Path&gt;" class="s0" d="m112.8 70.5c0 0-18.8 21.3-42 21.2-23.1 0-41.8-21.4-41.8-21.4"/>
					<path id="&lt;Path&gt;" class="s0" d="m113.3 71c0 0-24.2 16.4-24.3 36.8 0 20.4 24.2 36.9 24.2 36.9"/>
				</g>
				<g id="&lt;Group&gt;">
					<path id="&lt;Path&gt;" class="s0" d="m787.3 82.5c-16.3-14.4-46.8-11-46.8-11 0 0-3.9 26.7 12.4 41.1 16.4 14.5 46.8 11.1 46.8 11.1 0 0 3.9-26.8-12.4-41.2z"/>
					<path id="&lt;Path&gt;" class="s0" d="m741.1 71.5c0 0 18.7 21.3 41.9 21.4 23.1 0 41.9-21.3 41.9-21.3"/>
					<path id="&lt;Path&gt;" class="s0" d="m740.5 72c0 0 24.3 16.5 24.2 36.9 0 20.3-24.3 36.8-24.3 36.8"/>
				</g>
				<path id="&lt;Path&gt;" class="s0" d="m139.7 144.7l568.8 1"/>
			</g>
		</g>
	</g>
</svg>