<svg version="1.2" xmlns="http://www.w3.org/2000/svg" viewBox="0 0 307 395" width="600" height="500">
	<title>11906656_4860999-ai</title>
	<style>
		.s0 { fill: none;stroke: #665e59;stroke-width: 6 } 
		.s1 { fill: none;stroke: #665e59;stroke-width: 2 } 
	</style>
	<g id="OBJECTS">
		<g id="&lt;Group&gt;">
			<g id="&lt;Group&gt;">
				<path id="&lt;Path&gt;" class="s0" d="m276.9 374h-254v-346h254z"/>
				<path id="&lt;Path&gt;" class="s1" d="m219.4 356.9h-139.1c-22.4 0-40.5-18.1-40.5-40.5v-230.8c0-22.4 18.1-40.6 40.5-40.6h139.1c22.4 0 40.5 18.2 40.5 40.6v230.8c0 22.4-18.1 40.5-40.5 40.5z"/>
				<g id="&lt;Group&gt;">
					<path id="&lt;Path&gt;" class="s1" d="m45.2 34.1c7.6 7.5 5.8 21.6 5.8 21.6 0 0-14.1 1.8-21.6-5.8-7.6-7.5-5.8-21.6-5.8-21.6 0 0 14.1-1.8 21.6 5.8z"/>
					<path id="&lt;Path&gt;" class="s1" d="m51 55.4c0 0-11.2-8.6-11.2-19.3 0-10.7 11.2-19.4 11.2-19.4"/>
					<path id="&lt;Path&gt;" class="s1" d="m50.7 55.7c0 0-8.6-11.2-19.3-11.2-10.7 0-19.4 11.2-19.4 11.2"/>
				</g>
				<g id="&lt;Group&gt;">
					<path id="&lt;Path&gt;" class="s1" d="m254.4 34.3c-7.5 7.5-5.7 21.6-5.7 21.6 0 0 14 1.8 21.6-5.8 7.6-7.5 5.8-21.6 5.8-21.6 0 0-14.1-1.8-21.7 5.8z"/>
					<path id="&lt;Path&gt;" class="s1" d="m248.7 55.6c0 0 11.2-8.6 11.2-19.3 0-10.7-11.2-19.4-11.2-19.4"/>
					<path id="&lt;Path&gt;" class="s1" d="m248.9 55.9c0 0 8.7-11.2 19.4-11.2 10.7 0 19.4 11.2 19.4 11.2"/>
				</g>
				<g id="&lt;Group&gt;">
					<path id="&lt;Path&gt;" class="s1" d="m45.2 367.2c7.6-7.6 5.8-21.6 5.8-21.6 0 0-14.1-1.8-21.6 5.7-7.6 7.6-5.8 21.7-5.8 21.7 0 0 14.1 1.8 21.6-5.8z"/>
					<path id="&lt;Path&gt;" class="s1" d="m51 345.8c0 0-11.2 8.7-11.2 19.4 0 10.7 11.2 19.4 11.2 19.4"/>
					<path id="&lt;Path&gt;" class="s1" d="m50.7 345.6c0 0-8.6 11.2-19.3 11.2-10.7 0-19.4-11.2-19.4-11.2"/>
				</g>
				<g id="&lt;Group&gt;">
					<path id="&lt;Path&gt;" class="s1" d="m254.4 367c-7.5-7.6-5.7-21.6-5.7-21.6 0 0 14-1.8 21.6 5.7 7.6 7.6 5.8 21.7 5.8 21.7 0 0-14.1 1.7-21.7-5.8z"/>
					<path id="&lt;Path&gt;" class="s1" d="m248.7 345.6c0 0 11.2 8.7 11.2 19.4 0 10.7-11.2 19.4-11.2 19.4"/>
					<path id="&lt;Path&gt;" class="s1" d="m248.9 345.4c0 0 8.7 11.2 19.4 11.2 10.7 0 19.4-11.2 19.4-11.2"/>
				</g>
				<path id="&lt;Path&gt;" class="s1" d="m63.6 16.9h171.3"/>
				<path id="&lt;Path&gt;" class="s1" d="m63.6 385.2h171.3"/>
				<path id="&lt;Path&gt;" class="s1" d="m287.7 67.9v262.9"/>
				<path id="&lt;Path&gt;" class="s1" d="m12 67.9v262.9"/>
			</g>
		</g>
	</g>
</svg>