<svg version="1.2" xmlns="http://www.w3.org/2000/svg" viewBox="0 0 401 318" width="401" height="318">
	<title>11906656_4860999-ai</title>
	<style>
		.s0 { fill: none;stroke: #665e59;stroke-width: 6 } 
		.s1 { fill: none;stroke: #665e59;stroke-width: 2 } 
	</style>
	<g id="OBJECTS">
		<g id="&lt;Group&gt;">
			<g id="&lt;Group&gt;">
				<path id="&lt;Path&gt;" class="s0" d="m29 289.6l1.1-254 346 1.5-1.1 254z"/>
				<path id="&lt;Path&gt;" class="s1" d="m46.1 272.8l0.9-220.2 311.9 1.3-0.9 220.2z"/>
				<g id="&lt;Group&gt;">
					<path id="&lt;Path&gt;" class="s1" d="m35.2 267.3c7.6-7.5 21.6-5.7 21.6-5.7 0 0 1.8 14.1-5.8 21.6-7.6 7.5-21.7 5.7-21.7 5.7 0 0-1.7-14.1 5.9-21.6z"/>
					<path id="&lt;Path&gt;" class="s1" d="m56.6 261.6c0 0-8.8 11.2-19.4 11.1-10.7 0-19.4-11.3-19.4-11.3"/>
					<path id="&lt;Path&gt;" class="s1" d="m56.8 261.9c0 0-11.2 8.6-11.3 19.3 0 10.7 11.2 19.4 11.2 19.4"/>
				</g>
				<g id="&lt;Group&gt;">
					<path id="&lt;Path&gt;" class="s1" d="m36.3 58.1c7.5 7.6 21.6 5.8 21.6 5.8 0 0 1.8-14-5.7-21.6-7.5-7.6-21.6-5.9-21.6-5.9 0 0-1.9 14.1 5.7 21.7z"/>
					<path id="&lt;Path&gt;" class="s1" d="m57.6 63.9c0 0-8.6-11.2-19.3-11.3-10.7 0-19.4 11.2-19.4 11.2"/>
					<path id="&lt;Path&gt;" class="s1" d="m57.9 63.7c0 0-11.2-8.8-11.2-19.5 0.1-10.6 11.3-19.3 11.3-19.3"/>
				</g>
				<g id="&lt;Group&gt;">
					<path id="&lt;Path&gt;" class="s1" d="m368.3 268.7c-7.5-7.6-21.6-5.9-21.6-5.9 0 0-1.9 14.1 5.7 21.7 7.5 7.6 21.6 5.8 21.6 5.8 0 0 1.8-14-5.7-21.6z"/>
					<path id="&lt;Path&gt;" class="s1" d="m347 262.8c0 0 8.6 11.3 19.3 11.3 10.7 0.1 19.4-11.1 19.4-11.1"/>
					<path id="&lt;Path&gt;" class="s1" d="m346.7 263.1c0 0 11.2 8.7 11.1 19.4 0 10.7-11.3 19.3-11.3 19.3"/>
				</g>
				<g id="&lt;Group&gt;">
					<path id="&lt;Path&gt;" class="s1" d="m369 59.5c-7.6 7.5-21.7 5.6-21.7 5.6 0 0-1.7-14 5.9-21.5 7.6-7.6 21.6-5.7 21.6-5.7 0 0 1.8 14-5.8 21.6z"/>
					<path id="&lt;Path&gt;" class="s1" d="m347.6 65.1c0 0 8.7-11.1 19.4-11.1 10.7 0.1 19.3 11.3 19.3 11.3"/>
					<path id="&lt;Path&gt;" class="s1" d="m347.3 64.9c0 0 11.3-8.6 11.3-19.3 0.1-10.7-11.1-19.4-11.1-19.4"/>
				</g>
				<path id="&lt;Path&gt;" class="s1" d="m18.1 248.8l0.7-171.3"/>
				<path id="&lt;Path&gt;" class="s1" d="m386.4 250.4l0.7-171.3"/>
				<path id="&lt;Path&gt;" class="s1" d="m70.1 25l262.9 1.1"/>
				<path id="&lt;Path&gt;" class="s1" d="m68.9 300.6l262.9 1.2"/>
			</g>
		</g>
	</g>
</svg>