<svg version="1.2" xmlns="http://www.w3.org/2000/svg" viewBox="0 0 849 576" width="1200" height="800">
	<title>11906656_4860999-ai</title>
	<style>
		.s0 { fill: none;stroke: #665e59;stroke-width: 2 } 
	</style>
	<g id="OBJECTS">
		<g id="&lt;Group&gt;">
			<g id="&lt;Group&gt;">
				<g id="&lt;Group&gt;">
					<path id="&lt;Path&gt;" class="s0" d="m58.6 477.4c16.3-14.4 46.7-10.9 46.7-10.9 0 0 3.9 26.7-12.5 41.1-16.4 14.4-46.8 10.9-46.8 10.9 0 0-3.8-26.8 12.6-41.1z"/>
					<path id="&lt;Path&gt;" class="s0" d="m104.8 466.5c0 0-18.8 21.3-42 21.2-23.1 0-41.8-21.4-41.8-21.4"/>
					<path id="&lt;Path&gt;" class="s0" d="m105.3 467c0 0-24.2 16.4-24.3 36.8 0 20.4 24.2 36.9 24.2 36.9"/>
				</g>
				<g id="&lt;Group&gt;">
					<path id="&lt;Path&gt;" class="s0" d="m59.8 78.9c16.3 14.4 46.8 11.1 46.8 11.1 0 0 3.9-26.8-12.4-41.2-16.4-14.4-46.8-11.1-46.8-11.1 0 0-3.9 26.8 12.4 41.2z"/>
					<path id="&lt;Path&gt;" class="s0" d="m106 90c0 0-18.7-21.4-41.9-21.4-23.1-0.1-41.9 21.2-41.9 21.2"/>
					<path id="&lt;Path&gt;" class="s0" d="m106.6 89.5c0 0-24.3-16.6-24.2-36.9 0-20.4 24.3-36.9 24.3-36.9"/>
				</g>
				<g id="&lt;Group&gt;">
					<path id="&lt;Path&gt;" class="s0" d="m779.3 478.5c-16.3-14.4-46.8-11-46.8-11 0 0-3.9 26.7 12.4 41.1 16.4 14.5 46.8 11.1 46.8 11.1 0 0 3.9-26.8-12.4-41.2z"/>
					<path id="&lt;Path&gt;" class="s0" d="m733.1 467.5c0 0 18.7 21.3 41.9 21.4 23.1 0 41.9-21.3 41.9-21.3"/>
					<path id="&lt;Path&gt;" class="s0" d="m732.5 468c0 0 24.3 16.5 24.2 36.9 0 20.3-24.3 36.8-24.3 36.8"/>
				</g>
				<g id="&lt;Group&gt;">
					<path id="&lt;Path&gt;" class="s0" d="m779.7 80.1c-16.4 14.3-46.8 10.9-46.8 10.9 0 0-3.9-26.8 12.5-41.2 16.4-14.3 46.8-10.9 46.8-10.9 0 0 3.8 26.8-12.5 41.2z"/>
					<path id="&lt;Path&gt;" class="s0" d="m733.4 91c0 0 18.8-21.3 42-21.3 23.1 0 41.8 21.4 41.8 21.4"/>
					<path id="&lt;Path&gt;" class="s0" d="m732.9 90.5c0 0 24.3-16.5 24.3-36.9 0-20.3-24.2-36.9-24.2-36.9"/>
				</g>
				<path id="&lt;Path&gt;" class="s0" d="m21.5 442.2l0.7-326.2"/>
				<path id="&lt;Path&gt;" class="s0" d="m818.3 443.5l0.7-326.2m-1 321.7z"/>
				<path id="Form 1" class="s0" d="m951 315"/>
				<path id="&lt;Path&gt;" class="s0" d="m132.8 15.8l568.8 0.9"/>
				<path id="&lt;Path&gt;" class="s0" d="m131.7 540.7l568.8 1"/>
			</g>
		</g>
	</g>
</svg>