<svg version="1.2" xmlns="http://www.w3.org/2000/svg" viewBox="0 0 865 154" width="865" height="154">
	<title>hp-frame-3-svg</title>
	<style>
		.s0 { fill: none;stroke: #665e59;stroke-width: 2 } 
	</style>
	<g id="OBJECTS">
		<g id="&lt;Group&gt;">
			<g id="&lt;Group&gt;">
				<g id="&lt;Group&gt;">
					<path id="&lt;Path&gt;" class="s0" d="m67.8 78.9c16.3 14.4 46.8 11.1 46.8 11.1 0 0 3.9-26.8-12.4-41.2-16.4-14.4-46.8-11.1-46.8-11.1 0 0-3.9 26.8 12.4 41.2z"/>
					<path id="&lt;Path&gt;" class="s0" d="m114 90c0 0-18.7-21.4-41.9-21.4-23.1-0.1-41.9 21.2-41.9 21.2"/>
					<path id="&lt;Path&gt;" class="s0" d="m114.6 89.5c0 0-24.3-16.6-24.2-36.9 0-20.4 24.3-36.9 24.3-36.9"/>
				</g>
				<g id="&lt;Group&gt;">
					<path id="&lt;Path&gt;" class="s0" d="m787.7 80.1c-16.4 14.3-46.8 10.9-46.8 10.9 0 0-3.9-26.8 12.5-41.2 16.4-14.3 46.8-10.9 46.8-10.9 0 0 3.8 26.8-12.5 41.2z"/>
					<path id="&lt;Path&gt;" class="s0" d="m741.4 91c0 0 18.8-21.3 42-21.3 23.1 0 41.8 21.4 41.8 21.4"/>
					<path id="&lt;Path&gt;" class="s0" d="m740.9 90.5c0 0 24.3-16.5 24.3-36.9 0-20.3-24.2-36.9-24.2-36.9"/>
				</g>
				<path id="&lt;Path&gt;" class="s0" d="m140.8 15.8l568.8 0.9"/>
			</g>
		</g>
	</g>
</svg>